<svg width="11" height="15" viewBox="0 0 11 15" fill="none" xmlns="http://www.w3.org/2000/svg">
<path d="M5.49984 4.16664C6.91432 4.16664 8.27088 4.72854 9.27107 5.72874C10.2713 6.72893 10.8332 8.08549 10.8332 9.49998C10.8332 10.9145 10.2713 12.271 9.27107 13.2712C8.27088 14.2714 6.91432 14.8333 5.49984 14.8333C4.08535 14.8333 2.7288 14.2714 1.7286 13.2712C0.728407 12.271 0.166504 10.9145 0.166504 9.49998C0.166504 8.08549 0.728407 6.72893 1.7286 5.72874C2.7288 4.72854 4.08535 4.16664 5.49984 4.16664ZM5.49984 6.49998L4.61784 8.28664L2.6465 8.57331L4.07317 9.96331L3.7365 11.9273L5.49984 11L7.26317 11.9266L6.9265 9.96331L8.35317 8.57264L6.38184 8.28598L5.49984 6.49998ZM6.1665 0.832642L9.49984 0.833308V2.83331L8.59117 3.59197C7.83713 3.19636 7.01388 2.94986 6.1665 2.86597V0.833308V0.832642ZM4.83317 0.832642V2.86597C3.98607 2.94974 3.16305 3.19601 2.40917 3.59131L1.49984 2.83331V0.833308L4.83317 0.832642Z" fill="white"/>
</svg>
