<svg width="21" height="24" viewBox="0 0 21 24" fill="none" xmlns="http://www.w3.org/2000/svg">
<path d="M17.7592 2.38422H16.3292C15.8137 2.38422 15.3958 2.80211 15.3958 3.31761V8.51551C15.3958 9.03101 15.8137 9.4489 16.3292 9.4489H17.7592C18.2748 9.4489 18.6926 9.03101 18.6926 8.51551V3.31761C18.6926 2.80211 18.2748 2.38422 17.7592 2.38422Z" fill="#1B76F9"/>
<path d="M20.1114 9.09072L11.3881 0.366535C11.1522 0.131785 10.8329 0 10.5001 0C10.1673 0 9.84798 0.131785 9.61206 0.366535L0.888827 9.09072C0.356509 9.68276 0.0428526 10.4391 0 11.2342V12.7709C4.76581 16.3166 10.5499 18.2272 16.49 18.2176C18.0007 18.2179 19.5089 18.0951 20.9997 17.8505V11.2342C20.9564 10.4394 20.6431 9.68316 20.1114 9.09072Z" fill="#1B76F9"/>
<path d="M16.4904 19.6306C10.5503 19.64 4.76621 17.7294 0.000366211 14.1838V22.4848C0.0014442 22.8176 0.134103 23.1364 0.369384 23.3716C0.604664 23.607 0.923462 23.7396 1.2562 23.7407H19.7444C20.0771 23.7396 20.3958 23.6068 20.6312 23.3716C20.8664 23.1363 20.999 22.8175 21.0001 22.4848V19.2634C19.5093 19.508 18.0011 19.6308 16.4904 19.6306Z" fill="#1B76F9"/>
</svg>
