<svg width="44" height="48" viewBox="0 0 44 48" fill="none" xmlns="http://www.w3.org/2000/svg">
<path d="M36.6766 4.81738H33.7854C32.743 4.81738 31.8982 5.66177 31.8982 6.70338V17.2062C31.8982 18.2478 32.743 19.0922 33.7854 19.0922H36.6766C37.719 19.0922 38.5638 18.2478 38.5638 17.2062V6.70338C38.5638 5.66177 37.719 4.81738 36.6766 4.81738Z" fill="white"/>
<path d="M41.4326 18.3686L23.7952 0.740616C23.3183 0.266282 22.6727 0 21.9998 0C21.3269 0 20.6814 0.266282 20.2044 0.740616L2.56734 18.3686C1.49107 19.5648 0.856905 21.0932 0.770264 22.6996V25.8046C10.406 32.9691 22.1006 36.8295 34.1106 36.8103C37.165 36.8108 40.2144 36.5627 43.2285 36.0684V22.6996C43.1409 21.0936 42.5075 19.5657 41.4326 18.3686Z" fill="white"/>
<path d="M34.1117 39.6653C22.1017 39.6843 10.4072 35.8239 0.771362 28.6597V45.4326C0.773542 46.1051 1.04176 46.7491 1.51746 47.2244C1.99316 47.7 2.63772 47.9679 3.31046 47.9701H40.6908C41.3634 47.9679 42.0079 47.6997 42.4838 47.2244C42.9593 46.7489 43.2274 46.1048 43.2296 45.4326V38.9235C40.2155 39.4177 37.1661 39.6659 34.1117 39.6653Z" fill="white"/>
</svg>
