<svg width="114" height="32" viewBox="0 0 114 32" fill="none" xmlns="http://www.w3.org/2000/svg">
<path d="M10.665 8.11166V10.5219H4.45797V14.34H9.21456V16.7076H4.45797V23H1.47177V8.11166H10.665ZM15.7687 8.11166V23H12.7825V8.11166H15.7687ZM31.4531 23H28.4669L21.7053 12.7829V23H18.7191V8.09033H21.7053L28.4669 18.3287V8.09033H31.4531V23ZM39.6086 8.11166C41.1728 8.11166 42.5451 8.41739 43.7253 9.02885C44.9198 9.64031 45.837 10.5148 46.4769 11.6524C47.131 12.7758 47.4581 14.0841 47.4581 15.5772C47.4581 17.0703 47.131 18.3785 46.4769 19.5019C45.837 20.611 44.9198 21.4713 43.7253 22.0828C42.5451 22.6943 41.1728 23 39.6086 23H34.4041V8.11166H39.6086ZM39.502 20.4617C41.0662 20.4617 42.2749 20.0351 43.1281 19.1819C43.9813 18.3287 44.4079 17.1271 44.4079 15.5772C44.4079 14.0272 43.9813 12.8185 43.1281 11.9511C42.2749 11.0694 41.0662 10.6286 39.502 10.6286H37.3903V20.4617H39.502ZM51.0159 23.1493C50.4755 23.1493 50.0276 22.9858 49.6721 22.6587C49.3308 22.3174 49.1602 21.8979 49.1602 21.4002C49.1602 20.9025 49.3308 20.4902 49.6721 20.1631C50.0276 19.8218 50.4755 19.6512 51.0159 19.6512C51.542 19.6512 51.9757 19.8218 52.317 20.1631C52.6583 20.4902 52.8289 20.9025 52.8289 21.4002C52.8289 21.8979 52.6583 22.3174 52.317 22.6587C51.9757 22.9858 51.542 23.1493 51.0159 23.1493ZM63.6382 23L58.2204 16.3664V23H55.2342V8.11166H58.2204V14.7879L63.6382 8.11166H67.243L61.1 15.4918L67.4136 23H63.6382ZM79.7442 12.591C79.4029 11.9653 78.9337 11.4889 78.3364 11.1618C77.7392 10.8348 77.0424 10.6713 76.2461 10.6713C75.3644 10.6713 74.5823 10.8703 73.8998 11.2685C73.2172 11.6667 72.684 12.2355 72.3 12.9749C71.9161 13.7143 71.7241 14.5675 71.7241 15.5345C71.7241 16.5299 71.9161 17.3973 72.3 18.1368C72.6982 18.8762 73.2457 19.445 73.9424 19.8432C74.6392 20.2413 75.4498 20.4404 76.3741 20.4404C77.5117 20.4404 78.4431 20.1418 79.1683 19.5445C79.8935 18.9331 80.3699 18.087 80.5974 17.0063H75.4782V14.724H83.5409V17.3262C83.3419 18.3643 82.9153 19.3241 82.2611 20.2058C81.607 21.0874 80.7609 21.7984 79.7229 22.3388C78.699 22.8649 77.5472 23.128 76.2674 23.128C74.8312 23.128 73.5301 22.808 72.364 22.1681C71.2122 21.514 70.3021 20.611 69.6338 19.4592C68.9797 18.3074 68.6526 16.9992 68.6526 15.5345C68.6526 14.0698 68.9797 12.7616 69.6338 11.6098C70.3021 10.4437 71.2122 9.54077 72.364 8.90087C73.5301 8.24675 74.8241 7.91969 76.2461 7.91969C77.924 7.91969 79.3816 8.33207 80.6187 9.15683C81.8559 9.96737 82.7091 11.1121 83.1783 12.591H79.7442Z" fill="#004A60"/>
<path d="M110.759 2.38428H109.329C108.814 2.38428 108.396 2.80217 108.396 3.31767V8.51557C108.396 9.03107 108.814 9.44897 109.329 9.44897H110.759C111.275 9.44897 111.693 9.03107 111.693 8.51557V3.31767C111.693 2.80217 111.275 2.38428 110.759 2.38428Z" fill="#1B76F9"/>
<path d="M113.111 9.09072L104.388 0.366535C104.152 0.131785 103.833 0 103.5 0C103.167 0 102.848 0.131785 102.612 0.366535L93.8888 9.09072C93.3565 9.68276 93.0429 10.4391 93 11.2342V12.7709C97.7658 16.3166 103.55 18.2272 109.49 18.2176C111.001 18.2179 112.509 18.0951 114 17.8505V11.2342C113.956 10.4394 113.643 9.68316 113.111 9.09072Z" fill="#1B76F9"/>
<path d="M109.491 19.6304C103.55 19.6398 97.7663 17.7292 93.0005 14.1836V22.4846C93.0016 22.8174 93.1342 23.1362 93.3695 23.3714C93.6048 23.6068 93.9236 23.7394 94.2563 23.7405H112.745C113.077 23.7394 113.396 23.6066 113.631 23.3714C113.867 23.136 113.999 22.8173 114 22.4846V19.2632C112.509 19.5078 111.001 19.6306 109.491 19.6304Z" fill="#1B76F9"/>
</svg>
