<svg width="40" height="33" viewBox="0 0 40 33" fill="none" xmlns="http://www.w3.org/2000/svg">
<g id="Group">
<path id="Vector" d="M25.1464 18.2246C25.1464 19.6807 24.568 21.0771 23.5384 22.1067C22.5088 23.1363 21.1123 23.7148 19.6562 23.7148C16.6305 23.7148 14.166 21.2503 14.166 18.2246C14.166 15.1989 16.6305 12.7344 19.6562 12.7344C21.1123 12.7344 22.5088 13.3128 23.5384 14.3424C24.568 15.372 25.1464 16.7685 25.1464 18.2246Z" fill="#004A60" fill-opacity="0.6"/>
<path id="Vector_2" d="M35.5164 4.20603H28.2937L27.4885 1.79034C27.2445 1.04612 26.549 0.545898 25.756 0.545898H13.5556C12.7625 0.545898 12.0671 1.04612 11.8231 1.79034L11.0179 4.20603H5.01527C2.66059 4.20603 0.745117 6.1215 0.745117 8.47618V27.9969C0.745117 30.3516 2.66059 32.267 5.01527 32.267H35.5164C37.871 32.267 39.7865 30.3516 39.7865 27.9969V8.47618C39.7865 6.1215 37.871 4.20603 35.5164 4.20603ZM19.6558 27.3747C14.617 27.3747 10.5055 23.2753 10.5055 18.2243C10.5055 13.1856 14.617 9.074 19.6558 9.074C24.7068 9.074 28.8061 13.1856 28.8061 18.2243C28.8061 23.2753 24.7068 27.3747 19.6558 27.3747ZM34.3817 12.1973C34.0363 12.5405 33.5692 12.7331 33.0824 12.7331C32.5955 12.7331 32.1284 12.5405 31.783 12.1973C31.4473 11.8505 31.2596 11.3867 31.2596 10.9041C31.2596 10.4214 31.4473 9.95762 31.783 9.61082C32.4662 8.9276 33.6985 8.9276 34.3817 9.61082C34.5517 9.78057 34.6866 9.98216 34.7786 10.2041C34.8706 10.426 34.9179 10.6638 34.9179 10.9041C34.9179 11.1443 34.8706 11.3822 34.7786 11.6041C34.6866 11.826 34.5517 12.0276 34.3817 12.1973Z" fill="#004A60" fill-opacity="0.6"/>
</g>
</svg>
