<svg width="26" height="22" viewBox="0 0 26 22" fill="none" xmlns="http://www.w3.org/2000/svg">
<mask id="mask0_172_5225" style="mask-type:alpha" maskUnits="userSpaceOnUse" x="5" y="1" width="16" height="20">
<ellipse cx="13.0091" cy="11" rx="7.74924" ry="10" fill="white"/>
</mask>
<g mask="url(#mask0_172_5225)">
<path d="M20.3709 11.005C20.3709 14.5594 17.0724 17.4405 13.0091 17.4405C8.9458 17.4405 5.64734 14.5594 5.64734 11.005C5.64734 7.45069 8.9458 4.56055 13.0091 4.56055C17.0724 4.56952 20.3709 7.45069 20.3709 11.005Z" fill="#00BCFF"/>
<path d="M18.9374 14.1487C18.8905 14.1754 18.8704 14.2376 18.8235 14.2732L18.7967 14.2999C18.7498 14.3266 18.7297 14.3888 18.6828 14.4244C18.636 14.4867 18.5891 14.5134 18.5422 14.5756C18.4953 14.6023 18.4484 14.6646 18.4283 14.7001L18.4082 14.7357C18.3613 14.7624 18.3144 14.8247 18.2943 14.8602C18.2943 14.8602 18.2742 14.8602 18.2742 14.8958C18.2273 14.9225 18.1804 14.9848 18.1336 15.0203C18.0867 15.0559 18.0398 15.1093 17.9929 15.1449L17.9728 15.1715L17.8321 15.2605C17.8321 15.2605 17.812 15.2605 17.812 15.2872C17.6981 15.3761 17.6044 15.4384 17.4905 15.5362C17.4704 15.5362 17.4704 15.5629 17.4704 15.5629L17.3297 15.6518C17.3029 15.6518 17.3029 15.6785 17.3029 15.6785C17.1891 15.7408 17.0752 15.8297 16.9613 15.892C16.9412 15.892 16.9412 15.9187 16.9144 15.9187C16.8675 15.9543 16.8206 15.9809 16.7737 15.9809C16.7536 15.9809 16.7536 16.0076 16.7268 16.0076C16.68 16.0343 16.613 16.0699 16.546 16.0966C16.479 16.1233 16.4321 16.1588 16.3584 16.1855C16.3383 16.1855 16.3383 16.1855 16.3115 16.2122C16.2646 16.2478 16.2178 16.2478 16.1709 16.2745C16.1441 16.2745 16.1441 16.3011 16.124 16.3011C16.0771 16.3278 16.0101 16.3278 15.9632 16.3634H15.9431C15.8761 16.399 15.8292 16.4257 15.7555 16.4257C15.7355 16.4257 15.7355 16.4257 15.7087 16.4524C15.6618 16.479 15.6149 16.479 15.5479 16.5146C15.5278 16.5146 15.501 16.5146 15.501 16.5502C15.4541 16.5769 15.3871 16.5769 15.3402 16.6125H15.2933C15.2264 16.6391 15.1527 16.6391 15.0857 16.6747H15.0388C14.9919 16.7103 14.9249 16.7103 14.878 16.7103C14.8579 16.7103 14.8311 16.7103 14.811 16.737C14.7642 16.737 14.6972 16.7637 14.6503 16.7637H14.6034C14.5364 16.7903 14.4627 16.7903 14.3957 16.7903H14.3488C14.3019 16.7903 14.235 16.817 14.1613 16.817H14.0943C14.0474 16.817 13.9804 16.8526 13.9335 16.8526H13.8665C13.7996 16.8526 13.7259 16.8793 13.6589 16.8793H12.4196C12.3527 16.8793 12.279 16.8793 12.212 16.8526H12.1919C12.1249 16.8526 12.0512 16.8526 11.9842 16.817H11.9172C11.8704 16.817 11.8034 16.817 11.7565 16.7903H11.6895C11.6225 16.7903 11.5488 16.7637 11.4818 16.7637H11.4617C11.3948 16.7637 11.3479 16.737 11.2742 16.737H11.2072C11.1603 16.737 11.0933 16.7103 11.0464 16.7103H11.0062C10.9392 16.6747 10.8656 16.6747 10.7986 16.648H10.7785C10.7316 16.6214 10.6646 16.6214 10.6177 16.5858C10.5976 16.5858 10.5708 16.5858 10.5507 16.5591C10.5038 16.5235 10.4569 16.5235 10.4101 16.4968C10.39 16.4968 10.39 16.4968 10.3632 16.4701C10.2962 16.4435 10.2225 16.4435 10.1756 16.4079H10.1287C10.0818 16.3723 10.0148 16.3723 9.96795 16.3456C9.94115 16.3456 9.92106 16.3189 9.92106 16.3189C9.87417 16.2923 9.82727 16.2923 9.78038 16.2567C9.76029 16.2567 9.76029 16.2567 9.73349 16.2211C9.66651 16.1944 9.61962 16.1588 9.54593 16.1322C9.52584 16.1322 9.52584 16.1322 9.49904 16.1055C9.45215 16.0699 9.40526 16.0432 9.35837 16.0432C9.33828 16.0432 9.31148 16.0165 9.31148 16.0165C9.26459 15.9898 9.2177 15.9543 9.17081 15.9543C9.15071 15.9543 9.15071 15.9543 9.12392 15.9187C9.07703 15.892 9.01004 15.8564 8.94306 15.8297C8.92296 15.8297 8.92296 15.8031 8.89617 15.8031L8.7555 15.7141C8.7354 15.7141 8.7354 15.6874 8.70861 15.6874L8.56793 15.5985C8.56793 15.5985 8.54114 15.5985 8.54114 15.5718C8.49425 15.5451 8.42726 15.5095 8.38037 15.4473C8.36028 15.4473 8.36028 15.4206 8.33348 15.4206C8.28659 15.3939 8.2397 15.3583 8.21961 15.3316C8.19281 15.3316 8.19281 15.305 8.17272 15.305L8.03205 15.216C8.03205 15.216 8.01195 15.216 8.01195 15.1804C7.96506 15.1538 7.91817 15.0915 7.87128 15.0559C7.84448 15.0559 7.84448 15.0203 7.82439 15.0203C7.7775 14.9937 7.7574 14.9581 7.71051 14.9314C7.69042 14.9314 7.69042 14.9047 7.66362 14.9047C7.61673 14.8691 7.56984 14.8425 7.54975 14.7802C7.54975 14.7802 7.52965 14.7802 7.52965 14.7535C7.48276 14.7179 7.43587 14.6646 7.38898 14.629C7.36888 14.629 7.36888 14.6023 7.36888 14.6023C7.34879 14.5667 7.3019 14.54 7.2751 14.4778C7.25501 14.4778 7.25501 14.4511 7.22821 14.4511C7.18132 14.4155 7.16123 14.3621 7.11434 14.3266C7.06745 14.2643 7.02056 14.2376 7.00046 14.1754C6.98036 14.1754 6.98036 14.1487 6.98036 14.1487L6.86649 13.9975L6.84639 13.9619C6.89328 13.8729 6.91338 13.8374 6.94017 13.8107C7.03395 13.7484 7.08084 13.784 7.2818 13.8463C7.50955 13.9085 7.74401 13.9708 7.97176 13.9975C9.211 14.2109 9.76699 14.2732 11.9306 14.0242C12.346 13.9619 12.6206 13.7751 12.7613 13.446C12.7814 13.4193 12.7814 13.3837 12.8082 13.3215C12.835 13.3482 12.835 13.3837 12.855 13.446C12.9957 13.784 13.2905 13.9619 13.6857 14.0242C15.8493 14.2643 16.3986 14.2109 17.6379 13.9975C17.8656 13.9619 18.1001 13.9085 18.3278 13.8463C18.5355 13.784 18.5824 13.784 18.6694 13.8107C18.7163 13.8463 18.7364 13.8729 18.8101 14.0597C18.9642 14.1131 18.9642 14.1131 18.9374 14.1487C18.9374 14.1131 18.9374 14.1131 18.9374 14.1487ZM19.125 7.88694L19.1718 7.9492C19.2187 8.01146 19.2388 8.07372 19.2857 8.13599C19.3058 8.17156 19.3058 8.17157 19.3058 8.19825C19.3259 8.22493 19.3527 8.26051 19.3527 8.28719C19.3728 8.32277 19.3728 8.32277 19.3728 8.34945C19.3996 8.37614 19.4197 8.41172 19.4197 8.4384C19.4398 8.47398 19.4398 8.47398 19.4398 8.50066C19.4867 8.62518 19.5537 8.71413 19.6006 8.83865C19.6006 8.86534 19.6273 8.86534 19.6273 8.90091C19.6474 8.93649 19.6474 8.96318 19.6742 8.98986C19.6742 9.01654 19.6943 9.01654 19.6943 9.05212C19.7144 9.0877 19.7144 9.11438 19.7412 9.14106C19.7412 9.16775 19.7613 9.16775 19.7613 9.20333C19.7814 9.26559 19.8082 9.35453 19.8283 9.4168C19.8283 9.44348 19.8283 9.44348 19.8551 9.44348C19.8551 9.47016 19.8752 9.50574 19.8752 9.53243C19.8752 9.55911 19.8953 9.59469 19.8953 9.59469C19.8953 9.62137 19.9154 9.65695 19.9154 9.68363C19.9154 9.71031 19.9355 9.74589 19.9355 9.74589C19.9355 9.77258 19.9623 9.80816 19.9623 9.83484C19.9623 9.86152 19.9623 9.8971 19.9824 9.8971C20.0025 9.95936 20.0025 10.0216 20.0025 10.0839C20.0025 10.1106 20.0025 10.1461 20.0226 10.1461C20.0226 10.1728 20.0226 10.2084 20.0427 10.2351V10.4219C19.3996 10.2974 18.3881 10.2974 16.9412 10.8221C16.4388 11.0979 15.9766 11.2757 15.4943 11.5515C15.5881 10.9378 15.6082 9.99494 15.5613 9.29227C15.5144 8.50066 15.7489 7.70905 15.8828 7.27322L15.9029 7.18427C15.9297 7.12201 15.9297 7.05975 15.9699 7.03307H16.0369C16.0838 7.03307 16.1508 7.05975 16.1977 7.05975C16.4991 7.09533 16.8407 6.84628 16.9345 6.78402C17.0015 6.72176 17.0953 6.69507 17.1891 6.6595C17.256 6.63281 17.3297 6.59723 17.4168 6.57055C17.4637 6.54387 17.5106 6.54387 17.5776 6.54387C17.6446 6.54387 17.7383 6.51718 17.8321 6.48161C18.3412 6.90854 18.7766 7.37106 19.125 7.88694ZM16.6867 4.34692C16.7536 4.28466 16.9144 4.37361 17.1221 4.58708C17.169 4.64934 17.2158 4.67602 17.2627 4.7116C17.4034 4.83612 17.6781 5.04959 17.6981 5.2008C17.6981 5.22748 17.6981 5.26306 17.6781 5.28974V5.31643C17.6312 5.40537 17.5642 5.56547 17.5173 5.59215L17.4704 5.65442C17.3766 5.77894 17.2426 5.90346 17.1958 5.90346C17.0551 5.87678 16.968 5.8412 16.8541 5.77894C16.9211 5.41426 17.0149 5.50321 17.1958 5.62773C17.1958 5.56547 17.1757 5.53879 17.1757 5.47653L17.3163 5.38758L17.1556 5.3609C17.1355 5.20969 17.1355 5.08517 17.1355 4.93396C17.0886 5.02291 17.0886 5.12075 17.0685 5.18301C17.0484 5.24527 17.0015 5.30753 16.9747 5.33421L16.8809 5.20969C16.834 5.14743 16.767 5.08517 16.7201 5.05848C16.7201 5.08517 16.7001 5.08517 16.7001 5.08517C16.8608 5.38758 16.8608 5.44984 16.68 5.72557C16.5192 5.96572 16.3584 6.15251 16.1977 6.36598C16.3115 6.45492 16.4522 6.39266 16.613 6.17919C16.8206 5.87678 16.8206 5.87678 17.0953 6.02799L17.1422 6.05467C17.256 6.11693 17.323 6.02799 17.4369 5.96573C17.5039 5.93904 17.5977 5.87678 17.6647 5.87678H17.6914C17.8522 5.8412 17.946 5.8412 17.9661 5.87678C17.9661 5.87678 17.9862 5.90346 17.9862 5.93904C17.9862 6.09025 17.8924 6.15251 17.5977 6.18809C17.5307 6.18809 17.457 6.21477 17.3699 6.25035C17.3029 6.27703 17.256 6.31261 17.1824 6.31261C17.0685 6.34819 16.9747 6.37487 16.8876 6.46382C16.7001 6.58834 16.4723 6.71286 16.2914 6.71286C16.2445 6.71286 16.1977 6.71286 16.1776 6.68618C16.0168 6.6595 15.8828 6.6595 15.7622 7.05085L15.7422 7.1398C15.6283 7.56674 15.3737 8.42061 15.4005 9.31006C15.4474 10.1995 15.3737 11.3914 15.2599 11.7827L15.0991 12.183L15.4005 11.9962C15.4206 11.9606 18.0465 10.4397 20.0896 10.8666V10.9911C20.0695 11.2402 20.0427 11.6048 19.9757 11.9695C19.835 12.6455 19.5604 13.2859 19.1718 13.8374C19.125 13.6862 19.058 13.5883 18.9173 13.535C18.8503 13.4994 18.7766 13.4727 18.7096 13.4727C18.6159 13.4727 18.502 13.4994 18.4149 13.535C18.1871 13.5972 17.9795 13.6595 17.745 13.6862C16.5259 13.8996 15.9766 13.9619 13.833 13.7128C13.5115 13.6862 13.3039 13.5261 13.19 13.3126C12.9622 12.7967 13.3039 11.7827 13.5785 10.9644C13.6455 10.751 13.7192 10.5375 13.7862 10.3507C14.1278 9.22112 14.4761 8.21604 14.6838 7.629L14.7307 7.50447C14.9852 6.80181 15.2331 6.28593 15.5345 5.82341C15.9029 5.32532 16.5259 4.52481 16.6867 4.34692ZM13.0091 4.89838C13.9268 4.89838 14.8043 5.04959 15.5814 5.32532C15.4876 5.44984 15.4206 5.53879 15.3536 5.66331C14.9986 6.18809 14.7106 6.78402 14.5029 7.43332L14.456 7.55784C14.2484 8.17156 13.8799 9.17664 13.5584 10.3062C13.5115 10.493 13.4445 10.6709 13.3708 10.8844C13.2101 11.338 13.0493 11.8361 12.9555 12.3164C12.8617 11.8272 12.6809 11.338 12.5402 10.8844L12.3527 10.3062C12.011 9.17664 11.6627 8.17156 11.455 7.55784L11.4081 7.43332C11.1536 6.70397 10.879 6.15251 10.5574 5.66331C10.4904 5.57437 10.4168 5.47653 10.3498 5.3609C11.1469 5.04959 12.0378 4.89838 13.0091 4.89838ZM7.94496 5.90346C7.96506 5.87678 8.08563 5.87678 8.21961 5.90346H8.2665L8.47415 5.99241C8.58803 6.08135 8.65502 6.14361 8.76889 6.08135C8.78899 6.08135 8.81578 6.05467 8.81578 6.05467C9.09043 5.93015 9.09043 5.93015 9.29808 6.20588C9.45885 6.44603 9.59282 6.48161 9.7134 6.39266C9.55263 6.17919 9.37177 5.96573 9.2311 5.75226C9.05024 5.47653 9.05024 5.38758 9.211 5.11185C9.211 5.07627 9.19091 5.07627 9.19091 5.07627C9.14402 5.13854 9.07703 5.16522 9.03014 5.22748L8.93636 5.352C8.88947 5.28974 8.84258 5.26306 8.84258 5.2008C8.82248 5.13853 8.82248 5.04959 8.77559 4.96064C8.77559 5.08517 8.7555 5.23638 8.7555 5.38758L8.59473 5.44984L8.7354 5.53879L8.7153 5.66331C8.87607 5.51211 8.98995 5.42316 9.05693 5.81452C8.94306 5.87678 8.82918 5.87678 8.7153 5.93904C8.66841 5.96572 8.52774 5.81452 8.41387 5.68999C8.41387 5.66331 8.39377 5.66331 8.39377 5.66331L8.32678 5.57437C8.27989 5.51211 8.2598 5.42316 8.233 5.38758V5.3609C8.21291 5.33421 8.21291 5.29864 8.21291 5.27195C8.233 5.12075 8.51435 4.8717 8.64832 4.78275C8.69521 4.75607 8.7421 4.69381 8.78899 4.65823C8.97655 4.44476 9.15741 4.32024 9.2244 4.40919C9.38517 4.59597 9.98134 5.38758 10.3766 5.90346C10.678 6.3304 10.9258 6.88186 11.1804 7.58452L11.2273 7.70905C11.4349 8.32277 11.8034 9.32785 12.1249 10.4219C12.1718 10.6087 12.2388 10.8221 12.3326 11.0356C12.6072 11.8628 12.9555 12.8679 12.7211 13.3837C12.6273 13.6239 12.3995 13.7484 12.078 13.784C9.94115 14.033 9.41196 13.9708 8.16602 13.7573C7.93827 13.7306 7.73061 13.6684 7.49616 13.6061C7.2885 13.5438 7.17462 13.5172 6.99376 13.5794C6.89998 13.6061 6.85309 13.704 6.8062 13.7929C6.34399 13.0635 6.04926 12.2364 5.97557 11.3469V10.9467C8.02535 10.493 10.5038 12.014 10.5306 12.0496L10.8321 12.2364L10.7182 11.8361C10.6043 11.4359 10.5306 10.244 10.5775 9.36343C10.6244 8.48287 10.3699 7.6201 10.2359 7.19317L10.2158 7.10422C10.1019 6.70397 9.96125 6.70397 9.80048 6.73955C9.75359 6.73955 9.7067 6.76623 9.6866 6.76623C9.49904 6.76623 9.25119 6.64171 9.09043 6.52608C8.99665 6.46382 8.88277 6.40156 8.78899 6.37487C8.722 6.34819 8.67511 6.34819 8.60813 6.31261C8.54114 6.28593 8.46746 6.25035 8.38037 6.25035C8.07894 6.18809 7.99185 6.12583 7.99185 6.0013C7.92487 5.93015 7.92487 5.90346 7.94496 5.90346ZM8.13252 6.50829C8.17942 6.53497 8.2464 6.53497 8.29329 6.53497C8.34018 6.53497 8.40717 6.56166 8.45406 6.56166C8.52104 6.58834 8.59473 6.62392 8.68181 6.6506C8.77559 6.67728 8.84258 6.71286 8.93636 6.77513C9.03014 6.83739 9.37177 7.07754 9.67321 7.05085C9.7201 7.05085 9.78708 7.05086 9.83397 7.02417H9.90096C9.90096 7.02417 9.92106 7.05086 9.96795 7.17538L9.98804 7.26432C10.1019 7.69126 10.3565 8.48287 10.3096 9.28338C10.2627 9.98604 10.2828 10.9289 10.3766 11.5426C9.6866 11.1423 7.71051 10.1995 5.96217 10.5642C5.98227 10.324 6.00906 10.1106 6.05595 9.86152V9.83484C6.05595 9.79926 6.07605 9.77258 6.07605 9.74589C6.07605 9.71921 6.09615 9.68363 6.09615 9.65695V9.63026C6.14304 9.44348 6.21002 9.2389 6.28371 9.05212C6.28371 9.05212 6.28371 9.02544 6.3038 9.02544C6.3038 9.02544 6.3038 8.99875 6.3239 8.99875C6.34399 8.97207 6.34399 8.93649 6.37079 8.90981C6.70572 7.97589 7.32869 7.18427 8.13252 6.50829ZM18.1336 6.29482C18.1804 6.20588 18.2273 6.10804 18.2273 5.99241C18.2273 5.86788 18.1804 5.75226 18.1135 5.65442C18.0465 5.59216 17.9728 5.56547 17.8857 5.56547C17.8857 5.56547 17.8857 5.52989 17.9125 5.52989C17.9594 5.44095 17.9795 5.31642 17.9594 5.1919C17.9125 4.88949 17.6178 4.64044 17.4101 4.46255C17.3632 4.43587 17.3163 4.40029 17.2962 4.37361C16.8809 3.91999 16.6532 3.97335 16.5393 4.09788C16.4254 4.2224 16.1508 4.58708 15.8493 4.98733C14.9718 4.68492 14.0072 4.49813 13.0225 4.49813C11.9909 4.49813 10.9995 4.68491 10.1019 5.01401C9.80048 4.61376 9.50574 4.24908 9.38517 4.09788C9.27129 3.97335 9.01674 3.88441 8.62822 4.37361C8.60813 4.40029 8.56124 4.43587 8.51435 4.46255C8.30669 4.61376 8.00525 4.8628 7.96506 5.1919C7.94496 5.31642 7.96506 5.44095 8.01195 5.52989C8.01195 5.52989 8.01195 5.56547 8.03874 5.56547C7.94496 5.56547 7.87798 5.59216 7.81099 5.65442C7.74401 5.74336 7.69711 5.8412 7.69711 5.99241C7.69711 6.17919 7.74401 6.26814 7.81099 6.35708C6.47797 7.48669 5.64734 9.10549 5.64734 10.8488V11.2491C5.64734 14.9759 8.52104 18 13.0091 18C17.5173 18 20.3709 14.9759 20.3709 11.2491V10.8844C20.3642 9.0788 19.5135 7.46 18.1336 6.29482Z" fill="#0A0080"/>
</g>
<rect x="0.885254" y="0.5" width="24.2477" height="21" rx="4.5" stroke="#ECEFF2"/>
</svg>
