<svg width="26" height="22" viewBox="0 0 26 22" fill="none" xmlns="http://www.w3.org/2000/svg">
<path fill-rule="evenodd" clip-rule="evenodd" d="M13.2907 15.2968C12.4915 16.1537 11.4547 16.671 10.3219 16.671C7.79406 16.671 5.74487 14.0955 5.74487 10.9185C5.74487 7.74149 7.79406 5.16602 10.3219 5.16602C11.4547 5.16602 12.4915 5.68331 13.2907 6.54021C14.0899 5.68331 15.1267 5.16602 16.2596 5.16602C18.7874 5.16602 20.8365 7.74149 20.8365 10.9185C20.8365 14.0955 18.7874 16.671 16.2596 16.671C15.1267 16.671 14.0899 16.1537 13.2907 15.2968Z" fill="#ED0006"/>
<path fill-rule="evenodd" clip-rule="evenodd" d="M13.2906 15.2968C14.2748 14.2417 14.8988 12.6717 14.8988 10.9185C14.8988 9.16532 14.2748 7.59532 13.2906 6.54021C14.0899 5.68331 15.1266 5.16602 16.2595 5.16602C18.7873 5.16602 20.8365 7.74149 20.8365 10.9185C20.8365 14.0955 18.7873 16.671 16.2595 16.671C15.1266 16.671 14.0899 16.1537 13.2906 15.2968Z" fill="#F9A000"/>
<path fill-rule="evenodd" clip-rule="evenodd" d="M13.2907 6.54102C14.2748 7.59613 14.8988 9.16612 14.8988 10.9193C14.8988 12.6725 14.2748 14.2425 13.2907 15.2976C12.3066 14.2425 11.6826 12.6725 11.6826 10.9193C11.6826 9.16612 12.3066 7.59613 13.2907 6.54102Z" fill="#FF5E00"/>
<rect x="0.88501" y="0.5" width="24.4759" height="21" rx="4.5" stroke="#ECEFF2"/>
</svg>
