<svg width="14" height="16" viewBox="0 0 14 16" fill="none" xmlns="http://www.w3.org/2000/svg">
<path d="M1.90601 13.334H12.3398V14.6673H1.90601V13.334ZM2.94938 8.00065H3.99276V12.6673H2.94938V8.00065ZM5.55782 8.00065H6.60119V12.6673H5.55782V8.00065ZM7.64457 8.00065H8.68794V12.6673H7.64457V8.00065ZM10.253 8.00065H11.2964V12.6673H10.253V8.00065ZM1.90601 4.66732L7.12288 1.33398L12.3398 4.66732V7.33398H1.90601V4.66732ZM7.12288 5.33398C7.41101 5.33398 7.64457 5.0355 7.64457 4.66732C7.64457 4.29913 7.41101 4.00065 7.12288 4.00065C6.83475 4.00065 6.60119 4.29913 6.60119 4.66732C6.60119 5.0355 6.83475 5.33398 7.12288 5.33398Z" fill="#2353FD"/>
</svg>
