<svg width="26" height="22" viewBox="0 0 26 22" fill="none" xmlns="http://www.w3.org/2000/svg">
<mask id="mask0_172_5197" style="mask-type:alpha" maskUnits="userSpaceOnUse" x="5" y="1" width="16" height="20">
<ellipse cx="13" cy="11" rx="8" ry="10" fill="white"/>
</mask>
<g mask="url(#mask0_172_5197)">
<path d="M8.48657 6.9274C8.92928 6.34197 9.51653 6 10.2064 6C11.5505 6 12.4416 7.23516 12.6121 9.08552C12.6673 9.68641 12.6668 10.5336 12.6663 11.5148C12.6662 11.6155 12.6662 11.7175 12.6662 11.8208V15.4968H10.8179V12.7779C10.8179 12.7779 10.8141 10.451 10.8028 10.0161C10.7532 8.12203 9.86235 6.93189 8.48639 6.93061C8.07125 7.48267 7.84882 8.15765 7.81601 9.18973C7.8115 9.33368 7.81264 9.84391 7.81414 10.5164C7.81491 10.8648 7.81578 11.2568 7.81601 11.664C7.81738 13.4361 7.81601 15.4972 7.81601 15.4972H5.96772V11.3129C5.96772 11.1695 5.96564 11.025 5.96356 10.8798C5.95937 10.5878 5.95514 10.2935 5.96772 10.0022C5.9886 9.51646 6.05536 9.03897 6.23543 8.5954C6.6476 7.5792 7.49215 6.92491 8.3925 6.92491C8.42395 6.92491 8.45543 6.92583 8.48657 6.92734V6.9274Z" fill="#820AD1"/>
<path d="M19.9514 11.7194C19.964 11.4281 19.9598 11.1338 19.9556 10.8418C19.9535 10.6967 19.9514 10.5521 19.9514 10.4087V6.22443H18.1032C18.1032 6.22443 18.1018 8.28549 18.1032 10.0576C18.1034 10.4648 18.1043 10.8567 18.105 11.2052C18.1065 11.8777 18.1077 12.3879 18.1032 12.5319C18.0704 13.564 17.8479 14.2389 17.4328 14.791C16.0569 14.7898 15.166 13.5995 15.1164 11.7055C15.1051 11.2706 15.1003 10.1914 15.1003 8.94149V6.22266L13.2534 6.22478V9.90072C13.2534 10.004 13.2533 10.1061 13.2533 10.2067C13.2527 11.188 13.2522 12.0351 13.3075 12.636C13.4776 14.4864 14.3687 15.7216 15.7128 15.7216C16.4027 15.7216 16.9899 15.3796 17.4327 14.7942C17.4638 14.7957 17.4952 14.7966 17.5267 14.7966C18.427 14.7966 19.2716 14.1423 19.6838 13.1261C19.8638 12.6825 19.9306 12.205 19.9515 11.7193L19.9514 11.7194Z" fill="#820AD1"/>
</g>
<rect x="0.5" y="0.5" width="25" height="21" rx="4.5" stroke="#ECEFF2"/>
</svg>
