<svg width="34" height="34" viewBox="0 0 34 34" fill="none" xmlns="http://www.w3.org/2000/svg">
<path d="M16.9997 0.333344C26.1997 0.333344 33.6663 7.80001 33.6663 17C33.6663 26.2 26.1997 33.6667 16.9997 33.6667C7.79967 33.6667 0.333008 26.2 0.333008 17C0.333008 7.80001 7.79967 0.333344 16.9997 0.333344ZM7.03801 22.6933C9.48467 26.3433 13.158 28.6667 17.2663 28.6667C21.373 28.6667 25.048 26.345 27.493 22.6933C24.7192 20.101 21.0629 18.6614 17.2663 18.6667C13.4692 18.6609 9.8122 20.1006 7.03801 22.6933ZM16.9997 15.3333C18.3258 15.3333 19.5975 14.8066 20.5352 13.8689C21.4729 12.9312 21.9997 11.6594 21.9997 10.3333C21.9997 9.00726 21.4729 7.73549 20.5352 6.79781C19.5975 5.86013 18.3258 5.33334 16.9997 5.33334C15.6736 5.33334 14.4018 5.86013 13.4641 6.79781C12.5265 7.73549 11.9997 9.00726 11.9997 10.3333C11.9997 11.6594 12.5265 12.9312 13.4641 13.8689C14.4018 14.8066 15.6736 15.3333 16.9997 15.3333Z" fill="#1B76F9"/>
</svg>
